# Object Export From Tinkercad Server 2015

mtllib obj.mtl

o obj_0
v 32.5 		14.722 		10.01
v -13.003 		7.998 		10.01
v -13.003 		7.998 		9.998
v 30.651 		13.487 		10.01
v -53.987 		-10.349 		25.01
v -52.521 		-12.021 		25.01
v -50.849 		-13.487 		25.01
v 41 		17 		25.01
v 38.781 		16.855 		25.01
v 29.781 		16.254 		10.01
v 50.178 		17.488 		25.01
v -57.988 		-9.178 		25.01
v 27.903 		14.783 		10.01
v -65.982 		36.741 		25
v -25.778 		8.5 		25.01
v -27.013 		10.349 		25.01
v -28.479 		12.021 		25.01
v -30.151 		13.487 		25.01
v -32 		14.722 		25.01
v -23.012 		9.178 		25.01
v -65.982 		36.741 		10.01
v -24.246 		11.219 		25.01
v 26.217 		13.097 		10.01
v -68.841 		34.543 		25
v -68.841 		34.543 		10.01
v 48.003 		18.467 		25.01
v -25.717 		13.097 		25.01
v -56.754 		-11.219 		25.01
v 45.4 		16.421 		25.01
v -55.283 		-13.097 		25.01
v 43.219 		16.855 		25.01
v -27.403 		14.783 		25.01
v 36.6 		16.421 		25.01
v 49.339 		-44.02 		10.01
v -53.597 		-14.783 		25.01
v -70.003 		33.003 		10.01
v -29.281 		16.254 		25.01
v 52.856 		-43.124 		10.01
v -51.719 		-16.254 		25.01
v 56.29 		-41.948 		10.01
v 45.726 		19.176 		25.01
v 59.618 		-40.499 		10.01
v 43.381 		19.606 		25.01
v 41 		19.75 		25.01
v 38.619 		19.606 		25.01
v -23.645 		2.219 		25.01
v 36.274 		19.176 		25.01
v -24.079 		4.4 		25.01
v 33.997 		18.467 		25.01
v 62.818 		-38.786 		10.01
v -56.921 		-4.4 		10.01
v -56.206 		-6.506 		10.01
v -24.794 		6.506 		25.01
v -70.003 		33.003 		9.998
v 55.722 		8.5 		25.01
v 54.487 		10.349 		25.01
v 28.979 		12.021 		10.01
v -23.5 		0 		25.01
v 53.021 		12.021 		25.01
v -20.894 		2.381 		25.01
v -20.75 		0 		25.01
v 51.349 		13.487 		25.01
v 27.513 		10.349 		10.01
v -21.324 		4.726 		25.01
v -71.514 		32.122 		25
v -57.5 		0 		10.01
v 58.488 		9.178 		25.01
v 26.278 		8.5 		10.01
v -57.355 		-2.219 		10.01
v 49.5 		14.722 		25.01
v -73.986 		29.495 		25
v -22.033 		7.003 		25.01
v -76.238 		26.679 		25
v 57.254 		11.219 		25.01
v -23.012 		9.178 		10.01
v -78.258 		23.692 		25
v 55.783 		13.097 		25.01
v 54.097 		14.783 		25.01
v 52.219 		16.254 		25.01
v -60.25 		0 		10.01
v 24.746 		11.219 		10.01
v -24.246 		11.219 		10.01
v 65.003 		-34.003 		10.01
v 57.421 		4.4 		25.01
v 57.855 		2.219 		25.01
v 57.998 		-34.003 		10.01
v -60.106 		-2.381 		10.01
v 56.706 		6.506 		25.01
v -59.676 		-4.726 		10.01
v 60.75 		0 		25.01
v 60.606 		2.381 		25.01
v 60.176 		4.726 		25.01
v 59.467 		7.003 		25.01
v -58.967 		-7.003 		10.01
v 58 		0 		25.01
v 47.506 		15.706 		25.01
v 43.003 		31.998 		10.01
v 35.998 		31.998 		10.01
v 23.512 		9.178 		10.01
v -80.033 		20.552 		25
v -81.55 		17.28 		25
v 65.003 		-34.003 		9.998
v 57.998 		-34.003 		9.998
v 43.003 		31.998 		9.998
v 35.998 		31.998 		9.998
v 25.294 		6.506 		10.01
v 24.579 		4.4 		10.01
v 24.145 		2.219 		10.01
v -71.514 		32.122 		10.01
v 45.4 		16.421 		10.01
v 24 		0 		10.01
v 43.219 		16.855 		10.01
v -73.986 		29.495 		10.01
v 22.533 		7.003 		10.01
v 41 		17 		10.01
v 63.894 		-49.998 		25
v -30.151 		13.487 		10.01
v -32 		14.722 		10.01
v -76.238 		26.679 		10.01
v 63.894 		-49.998 		5.003
v 21.824 		4.726 		10.01
v 21.394 		2.381 		10.01
v 48.003 		18.467 		10.01
v 21.25 		0 		10.01
v 45.726 		19.176 		10.01
v -70.003 		25.998 		10.01
v 34.494 		15.706 		25.01
v 43.381 		19.606 		10.01
v -25.717 		13.097 		10.01
v -25.066 		45.257 		10.01
v 41 		19.75 		10.01
v -55.222 		-8.5 		10.01
v -53.987 		-10.349 		10.01
v -52.521 		-12.021 		10.01
v 31.822 		17.488 		25.01
v -27.403 		14.783 		10.01
v -25 		45.826 		10.01
v 34.895 		-44.71 		25
v -70.003 		25.998 		9.998
v 32.5 		14.722 		25.01
v 38.515 		-44.976 		25
v 30.651 		13.487 		25.01
v -29.281 		16.254 		10.01
v 42.145 		-44.949 		25
v 28.979 		12.021 		25.01
v 45.761 		-44.63 		25
v 27.513 		10.349 		25.01
v 26.278 		8.5 		25.01
v -56.754 		-11.219 		10.01
v -78.258 		23.692 		10.01
v 2.998 		14.003 		10.01
v 10.003 		14.003 		10.01
v 29.781 		16.254 		25.01
v 27.903 		14.783 		25.01
v 26.217 		13.097 		25.01
v -80.033 		20.552 		10.01
v 24.746 		11.219 		25.01
v 10.003 		6.998 		10.01
v 23.512 		9.178 		25.01
v 2.998 		6.998 		10.01
v -27.592 		43.327 		10.01
v -28.158 		43.414 		10.01
v -25.778 		8.5 		10.01
v -27.013 		10.349 		10.01
v -28.479 		12.021 		10.01
v -27.021 		43.372 		10.01
v -81.55 		17.28 		10.01
v 25.294 		6.506 		25.01
v 24.579 		4.4 		25.01
v -50.849 		-13.487 		10.01
v 24.145 		2.219 		25.01
v -26.475 		43.546 		10.01
v 24 		0 		25.01
v -25.983 		43.839 		10.01
v 22.533 		7.003 		25.01
v 21.824 		4.726 		25.01
v 21.394 		2.381 		25.01
v -55.283 		-13.097 		10.01
v -25.57 		44.237 		10.01
v 21.25 		0 		25.01
v 2.998 		14.003 		9.998
v 43.003 		-33.998 		10.01
v 10.003 		14.003 		9.998
v 56.706 		-6.506 		25.01
v -25.259 		44.718 		10.01
v 10.003 		6.998 		9.998
v 2.998 		6.998 		9.998
v 57.421 		-4.4 		25.01
v 57.855 		-2.219 		25.01
v -53.597 		-14.783 		10.01
v 43.003 		-33.998 		9.998
v -23.5 		0 		10.01
v -23.645 		2.219 		10.01
v -24.079 		4.4 		10.01
v -31.672 		44.223 		10.01
v 59.467 		-7.003 		25.01
v 60.176 		-4.726 		25.01
v 60.606 		-2.381 		25.01
v -89.998 		23.859 		25
v 49.5 		-14.722 		25.01
v -51.719 		-16.254 		10.01
v 51.349 		-13.487 		25.01
v -89.998 		23.859 		5.003
v 53.021 		-12.021 		25.01
v 82.815 		-13.851 		25
v 54.487 		-10.349 		25.01
v -20.75 		0 		10.01
v 35.998 		-33.998 		10.01
v -20.894 		2.381 		10.01
v 55.722 		-8.5 		25.01
v 83.792 		-10.356 		25
v 84.484 		-6.793 		25
v 52.219 		-16.254 		25.01
v 54.097 		-14.783 		25.01
v 55.783 		-13.097 		25.01
v 57.254 		-11.219 		25.01
v 58.488 		-9.178 		25.01
v -21.324 		4.726 		10.01
v 84.887 		-3.185 		25
v 35.998 		-33.998 		9.998
v -57.988 		-9.178 		10.01
v 34.494 		-15.706 		25.01
v -22.033 		7.003 		10.01
v 34.895 		-44.71 		10.01
v 38.781 		16.855 		10.01
v -80.395 		15.075 		10.01
v -73.925 		12.395 		10.01
v 38.515 		-44.976 		10.01
v 82.815 		-13.851 		10.01
v 36.6 		16.421 		10.01
v 47.506 		-15.706 		25.01
v 42.145 		-44.949 		10.01
v -76.605 		5.925 		10.01
v 83.792 		-10.356 		10.01
v 84.484 		-6.793 		10.01
v 38.619 		19.606 		10.01
v -24.794 		6.506 		10.01
v 50.178 		-17.488 		25.01
v 84.887 		-3.185 		10.01
v 45.761 		-44.63 		10.01
v 36.274 		19.176 		10.01
v 36.6 		-16.421 		25.01
v 33.997 		18.467 		10.01
v 38.781 		-16.855 		25.01
v 41 		-17 		25.01
v 43.003 		-41.003 		10.01
v -44.9 		-16.421 		25.01
v 35.998 		-41.003 		10.01
v 33.997 		-18.467 		25.01
v -42.719 		-16.855 		25.01
v 43.219 		-16.855 		25.01
v -80.395 		15.075 		9.998
v -73.925 		12.395 		9.998
v -40.5 		-17 		25.01
v -76.605 		5.925 		9.998
v 36.274 		-19.176 		25.01
v -38.281 		-16.855 		25.01
v 45.4 		-16.421 		25.01
v -47.503 		-18.467 		25.01
v -35.241 		44.748 		25
v 43.003 		-41.003 		9.998
v 35.998 		-41.003 		9.998
v 38.619 		-19.606 		25.01
v 41 		-19.75 		25.01
v 43.381 		-19.606 		25.01
v -38.839 		44.985 		25
v 45.726 		-19.176 		25.01
v 48.003 		-18.467 		25.01
v -42.445 		44.934 		25
v 24.145 		-2.219 		25.01
v 24.579 		-4.4 		25.01
v -36.1 		-16.421 		25.01
v -46.036 		44.593 		25
v 25.294 		-6.506 		25.01
v -45.226 		-19.176 		25.01
v 69.998 		-7.998 		10.01
v 77.003 		-7.998 		10.01
v 21.394 		-2.381 		25.01
v 21.824 		-4.726 		25.01
v 22.533 		-7.003 		25.01
v -27.003 		33.003 		10.01
v -19.998 		33.003 		10.01
v 26.278 		-8.5 		25.01
v -42.881 		-19.606 		25.01
v -40.5 		-19.75 		25.01
v 27.513 		-10.349 		25.01
v -38.119 		-19.606 		25.01
v 28.979 		-12.021 		25.01
v -35.774 		-19.176 		25.01
v 69.998 		-7.998 		9.998
v 30.651 		-13.487 		25.01
v 77.003 		-7.998 		9.998
v -33.497 		-18.467 		25.01
v -27.003 		33.003 		9.998
v 32.5 		-14.722 		25.01
v -19.998 		33.003 		9.998
v 23.512 		-9.178 		25.01
v 24.746 		-11.219 		25.01
v 26.217 		-13.097 		25.01
v -35.241 		44.748 		10.01
v 27.903 		-14.783 		25.01
v 29.781 		-16.254 		25.01
v -38.839 		44.985 		10.01
v 31.822 		-17.488 		25.01
v -40.5 		-17 		10.01
v -38.281 		-16.855 		10.01
v -36.1 		-16.421 		10.01
v -42.445 		44.934 		10.01
v 77.003 		-15.003 		10.01
v -31.322 		17.488 		25.01
v -5 		25 		25
v -46.036 		44.593 		10.01
v -82.8 		13.897 		25
v -83.776 		10.425 		25
v 0 		25 		25
v -84.47 		6.886 		25
v 77.003 		-15.003 		9.998
v -84.879 		3.303 		25
v -40.5 		-19.75 		10.01
v -8.147 		30.085 		25
v -82.8 		13.897 		10.01
v -49.003 		40.003 		10.01
v 69.998 		-15.003 		10.01
v -41.998 		40.003 		10.01
v -83.776 		10.425 		10.01
v -38.119 		-19.606 		10.01
v -84.47 		6.886 		10.01
v -7.5 		30 		25
v 69.998 		-15.003 		9.998
v -35.774 		-19.176 		10.01
v -84.879 		3.303 		10.01
v -49.003 		40.003 		9.998
v -41.998 		40.003 		9.998
v -5 		30 		25
v -33.497 		-18.467 		10.01
v -36.1 		16.421 		25.01
v -83.075 		8.605 		10.01
v -38.281 		16.855 		25.01
v 90.998 		-22.894 		25
v -40.5 		17 		25.01
v -41.998 		32.998 		10.01
v -49.003 		32.998 		10.01
v -33.497 		18.467 		25.01
v -42.719 		16.855 		25.01
v -44.9 		-16.421 		10.01
v -42.719 		-16.855 		10.01
v 90.998 		-22.894 		5.003
v -10 		32.5 		25
v -35.774 		19.176 		25.01
v -44.9 		16.421 		25.01
v -83.075 		8.605 		9.998
v -9.915 		31.853 		25
v -38.119 		19.606 		25.01
v -40.5 		19.75 		25.01
v -42.881 		19.606 		25.01
v -45.226 		19.176 		25.01
v -47.503 		18.467 		25.01
v 71.449 		-32.186 		25
v -9.665 		31.25 		25
v 73.941 		-29.547 		25
v -49.678 		17.488 		25.01
v 76.212 		-26.715 		25
v 58.488 		9.178 		10.01
v -9.268 		30.732 		25
v 78.247 		-23.71 		25
v -8.75 		30.335 		25
v 80.034 		-20.55 		25
v -33.994 		15.706 		25.01
v -47.503 		-18.467 		10.01
v -41.998 		32.998 		9.998
v 81.56 		-17.257 		25
v -49.003 		32.998 		9.998
v -47.006 		15.706 		25.01
v -45.226 		-19.176 		10.01
v -49 		14.722 		25.01
v -42.881 		-19.606 		10.01
v -50.849 		13.487 		25.01
v -4.204 		17.707 		25
v -49.587 		43.967 		25
v -53.077 		43.058 		25
v -14.003 		-7.998 		10.01
v -6.998 		-7.998 		10.01
v -52.521 		12.021 		25.01
v -53.987 		10.349 		25.01
v -6.998 		-15.003 		10.01
v -14.003 		-15.003 		10.01
v -55.222 		8.5 		25.01
v -56.483 		41.872 		25
v -0.365 		17.981 		25
v -59.783 		40.418 		25
v -62.957 		38.704 		25
v 71.449 		-32.186 		10.01
v -51.719 		16.254 		25.01
v -53.597 		14.783 		25.01
v -55.283 		13.097 		25.01
v -56.754 		11.219 		25.01
v -57.988 		9.178 		25.01
v -63.859 		49.998 		25
v 73.941 		-29.547 		10.01
v -62.998 		-25.998 		10.01
v -14.003 		-7.998 		9.998
v -6.998 		-7.998 		9.998
v 76.212 		-26.715 		10.01
v -56.206 		6.506 		25.01
v -6.998 		-15.003 		9.998
v -14.003 		-15.003 		9.998
v -56.921 		4.4 		25.01
v 24.145 		-2.219 		10.01
v 78.247 		-23.71 		10.01
v -49.587 		43.967 		10.01
v -57.355 		2.219 		25.01
v -49.678 		-17.488 		10.01
v 24.579 		-4.4 		10.01
v -53.077 		43.058 		10.01
v 80.034 		-20.55 		10.01
v -57.5 		0 		25.01
v -56.483 		41.872 		10.01
v 81.56 		-17.257 		10.01
v 25.294 		-6.506 		10.01
v -62.998 		-25.998 		9.998
v -58.967 		7.003 		25.01
v -59.676 		4.726 		25.01
v -60.106 		2.381 		25.01
v -60.25 		0 		25.01
v -59.783 		40.418 		10.01
v -62.957 		38.704 		10.01
v -24.794 		-6.506 		25.01
v -24.079 		-4.4 		25.01
v 21.394 		-2.381 		10.01
v -23.645 		-2.219 		25.01
v 21.824 		-4.726 		10.01
v -5 		25 		10.01
v -49.678 		-17.488 		25.01
v 22.533 		-7.003 		10.01
v -22.033 		-7.003 		25.01
v -21.324 		-4.726 		25.01
v -20.894 		-2.381 		25.01
v -62.998 		33.003 		10.01
v -32 		-14.722 		25.01
v -30.151 		-13.487 		25.01
v 0 		25 		10.01
v 65.869 		-36.821 		25
v -48.997 		-44.091 		25
v -28.479 		-12.021 		25.01
v 68.753 		-34.616 		25
v -27.013 		-10.349 		25.01
v -8.147 		30.085 		10.01
v -25.778 		-8.5 		25.01
v -63.859 		49.998 		5.003
v -29.281 		-16.254 		25.01
v -27.403 		-14.783 		25.01
v -25.717 		-13.097 		25.01
v 65.869 		-36.821 		10.01
v -45.438 		-44.67 		25
v -62.998 		33.003 		9.998
v -7.5 		30 		10.01
v -24.246 		-11.219 		25.01
v -41.843 		-44.962 		25
v 68.753 		-34.616 		10.01
v -23.012 		-9.178 		25.01
v -38.237 		-44.965 		25
v -31.322 		-17.488 		25.01
v -5 		30 		10.01
v -34.641 		-44.68 		25
v -49 		-14.722 		25.01
v -47.006 		-15.706 		25.01
v -33.994 		-15.706 		25.01
v -57.355 		-2.219 		25.01
v -56.921 		-4.4 		25.01
v -56.206 		-6.506 		25.01
v 51.349 		13.487 		10.01
v -60.106 		-2.381 		25.01
v -59.676 		-4.726 		25.01
v -49.003 		-32.998 		10.01
v -39.998 		-32.998 		10.01
v -58.967 		-7.003 		25.01
v 49.5 		14.722 		10.01
v -39.998 		-40.003 		10.01
v -49.003 		-40.003 		10.01
v -55.222 		-8.5 		25.01
v -24.794 		-6.506 		10.01
v -24.079 		-4.4 		10.01
v 55.783 		13.097 		10.01
v -23.645 		-2.219 		10.01
v 54.097 		14.783 		10.01
v 52.219 		16.254 		10.01
v -49.003 		-32.998 		9.998
v -39.998 		-32.998 		9.998
v -39.998 		-40.003 		9.998
v -49.003 		-40.003 		9.998
v 26.278 		-8.5 		10.01
v -20.894 		-2.381 		10.01
v 27.513 		-10.349 		10.01
v -48.997 		-44.091 		10.01
v 28.979 		-12.021 		10.01
v -45.438 		-44.67 		10.01
v -22.033 		-7.003 		10.01
v -41.843 		-44.962 		10.01
v 55.722 		8.5 		10.01
v -38.237 		-44.965 		10.01
v -21.324 		-4.726 		10.01
v 54.487 		10.349 		10.01
v -34.641 		-44.68 		10.01
v 24.746 		-11.219 		10.01
v 53.021 		12.021 		10.01
v 56.706 		-6.506 		10.01
v -36.1 		16.421 		10.01
v -10 		32.5 		10.01
v -38.281 		16.855 		10.01
v -40.5 		17 		10.01
v 57.254 		11.219 		10.01
v 57.421 		-4.4 		10.01
v -24.246 		-11.219 		10.01
v -9.915 		31.853 		10.01
v 57.855 		-2.219 		10.01
v 58 		0 		10.01
v -23.012 		-9.178 		10.01
v 30.651 		-13.487 		10.01
v 60.75 		0 		10.01
v 60.606 		-2.381 		10.01
v 32.5 		-14.722 		10.01
v 70.81 		32.799 		25
v 59.467 		-7.003 		10.01
v -33.497 		18.467 		10.01
v 68.066 		35.175 		25
v 60.176 		-4.726 		10.01
v 26.217 		-13.097 		10.01
v 57.421 		4.4 		10.01
v -9.665 		31.25 		10.01
v -35.774 		19.176 		10.01
v 27.903 		-14.783 		10.01
v -9.268 		30.732 		10.01
v -65.488 		-37.086 		25
v -62.436 		-39.008 		25
v 70.81 		32.799 		10.01
v -8.75 		30.335 		10.01
v 29.781 		-16.254 		10.01
v 57.855 		2.219 		10.01
v -59.24 		-40.679 		25
v 68.066 		35.175 		10.01
v -38.119 		19.606 		10.01
v -55.921 		-42.09 		25
v -52.499 		-43.229 		25
v -40.5 		19.75 		10.01
v 58.488 		-9.178 		10.01
v 90.998 		23.859 		25
v 23.512 		-9.178 		10.01
v -42.719 		16.855 		10.01
v -44.9 		16.421 		10.01
v 90.998 		23.859 		5.003
v -65.488 		-37.086 		10.01
v -28.479 		-12.021 		10.01
v -27.013 		-10.349 		10.01
v -25.778 		-8.5 		10.01
v -62.436 		-39.008 		10.01
v -59.24 		-40.679 		10.01
v 81.212 		18.071 		25
v -55.921 		-42.09 		10.01
v 79.622 		21.334 		25
v 60.606 		2.381 		10.01
v -42.881 		19.606 		10.01
v 77.773 		24.458 		25
v -52.499 		-43.229 		10.01
v 60.176 		4.726 		10.01
v 75.679 		27.422 		25
v -0.406 		17.167 		10.01
v 59.467 		7.003 		10.01
v 73.353 		30.209 		25
v -45.226 		19.176 		10.01
v -62.998 		-33.003 		10.01
v -32 		-14.722 		10.01
v 81.212 		18.071 		10.01
v -30.151 		-13.487 		10.01
v -47.503 		18.467 		10.01
v 79.622 		21.334 		10.01
v 77.773 		24.458 		10.01
v -62.998 		-33.003 		9.998
v 75.679 		27.422 		10.01
v 73.353 		30.209 		10.01
v -29.281 		-16.254 		10.01
v 53.021 		-12.021 		10.01
v 56.706 		6.506 		10.01
v -62.998 		25.998 		10.01
v 54.487 		-10.349 		10.01
v -27.403 		-14.783 		10.01
v 55.722 		-8.5 		10.01
v -25.717 		-13.097 		10.01
v 57.254 		-11.219 		10.01
v 2.998 		-7.998 		10.01
v -19.998 		25.998 		10.01
v 10.003 		-7.998 		10.01
v 84.998 		0.443 		25
v 10.003 		-15.003 		10.01
v 2.998 		-15.003 		10.01
v 84.816 		4.068 		25
v 47.506 		15.706 		10.01
v -19.998 		25.998 		9.998
v 84.342 		7.666 		25
v 34.494 		15.706 		10.01
v -0.619 		-23.195 		25
v 0 		-23.117 		25
v 83.58 		11.215 		25
v 82.534 		14.691 		25
v -2.105 		-24.269 		25
v -1.706 		-23.79 		25
v 49.5 		-14.722 		10.01
v -1.2 		-23.424 		25
v -49.678 		17.488 		10.01
v -27.003 		25.998 		10.01
v 51.349 		-13.487 		10.01
v 2.998 		-7.998 		9.998
v 10.003 		-7.998 		9.998
v -62.998 		25.998 		9.998
v -74.998 		-7.998 		10.01
v -8.976 		-32.597 		25
v 10.003 		-15.003 		9.998
v 2.998 		-15.003 		9.998
v -27.003 		25.998 		9.998
v -6.466 		-30.007 		25
v 52.219 		-16.254 		10.01
v -4.17 		-27.226 		25
v -74.998 		-15.003 		10.01
v 54.097 		-14.783 		10.01
v 55.783 		-13.097 		10.01
v -74.998 		-7.998 		9.998
v 84.998 		0.443 		10.01
v -74.998 		-15.003 		9.998
v 84.816 		4.068 		10.01
v -31.322 		17.488 		10.01
v 84.342 		7.666 		10.01
v 31.822 		-17.488 		10.01
v 30.442 		43.973 		25
v 0 		-23.117 		10.01
v 83.58 		11.215 		10.01
v 26.929 		43.06 		25
v 23.501 		41.866 		25
v 82.534 		14.691 		10.01
v 22.003 		-25.998 		10.01
v 20.181 		40.4 		25
v -0.619 		-23.195 		10.01
v 16.989 		38.672 		25
v -1.706 		-23.79 		10.01
v -2.105 		-24.269 		10.01
v -1.2 		-23.424 		10.01
v -3.929 		15.447 		17.505
v -84.999 		-0.301 		25
v 34.494 		-15.706 		10.01
v -84.83 		-3.904 		25
v 47.506 		-15.706 		10.01
v -3.458 		12.147 		25
v -84.374 		-7.481 		25
v -83.632 		-11.011 		25
v -3.552 		12.711 		17.505
v -82.61 		-14.469 		25
v -3.246 		10.772 		17.505
v -33.994 		15.706 		10.01
v -47.006 		15.706 		10.01
v -49 		14.722 		10.01
v -2.897 		8.943 		25
v -84.999 		-0.301 		10.01
v -84.83 		-3.904 		10.01
v 78.003 		15.003 		10.01
v -8.976 		-32.597 		10.01
v 30.442 		43.973 		10.01
v -84.374 		-7.481 		10.01
v 70.998 		15.003 		10.01
v -6.466 		-30.007 		10.01
v 26.929 		43.06 		10.01
v 78.003 		7.998 		10.01
v -83.632 		-11.011 		10.01
v 23.501 		41.866 		10.01
v -4.17 		-27.226 		10.01
v 70.998 		7.998 		10.01
v 20.181 		40.4 		10.01
v -82.61 		-14.469 		10.01
v 16.989 		38.672 		10.01
v 22.003 		-25.998 		9.998
v 50.178 		-17.488 		10.01
v -82.003 		-7.998 		10.01
v -82.003 		-15.003 		10.01
v 1.706 		-23.79 		25
v 2.105 		-24.269 		25
v 0.619 		-23.195 		25
v 1.2 		-23.424 		25
v 70.998 		15.003 		9.998
v 78.003 		15.003 		9.998
v -82.003 		-7.998 		9.998
v 57.998 		-26.998 		10.01
v 65.003 		-26.998 		10.01
v 78.003 		7.998 		9.998
v 70.998 		7.998 		9.998
v -31.322 		-17.488 		10.01
v -82.003 		-15.003 		9.998
v 10 		49.998 		25
v 10 		49.998 		10.01
v 57.998 		-26.998 		9.998
v 65.003 		-26.998 		9.998
v 0 		49.998 		10.01
v -19.998 		-25.998 		10.01
v -81.315 		-17.835 		25
v -19.998 		-25.998 		9.998
v 64.859 		49.998 		25
v -79.754 		-21.086 		25
v -1.225 		8.629 		17.505
v 64.859 		49.998 		5.003
v -77.938 		-24.202 		25
v -75.878 		-27.162 		25
v -27.003 		-25.998 		10.01
v -73.587 		-29.948 		25
v 10 		38.73 		25
v 10.074 		38.128 		25
v 10.29 		37.561 		25
v 65.14 		37.322 		25
v 10.636 		37.064 		25
v 62.051 		39.227 		25
v -27.003 		-25.998 		9.998
v 58.817 		40.877 		25
v 55.462 		42.26 		25
v 52.005 		43.369 		25
v -0.867 		11.377 		17.505
v -0.621 		14.148 		17.505
v -14.578 		-37.131 		25
v -11.686 		-34.976 		25
v -71.081 		-32.542 		25
v -14.578 		-37.131 		10.01
v -11.686 		-34.976 		10.01
v 11.092 		36.664 		25
v 11.631 		36.386 		25
v 12.221 		36.245 		25
v 12.827 		36.251 		25
v 13.414 		36.403 		25
v 13.947 		36.691 		25
v 65.14 		37.322 		10.01
v -81.315 		-17.835 		10.01
v 62.051 		39.227 		10.01
v -79.754 		-21.086 		10.01
v 58.817 		40.877 		10.01
v -1.035 		10.067 		25
v -77.938 		-24.202 		10.01
v 55.462 		42.26 		10.01
v 52.005 		43.369 		10.01
v 4.184 		-27.244 		25
v -31.081 		-44.107 		25
v 6.497 		-30.042 		25
v -27.577 		-43.251 		25
v 41 		-17 		10.01
v -24.154 		-42.118 		25
v 9.027 		-32.645 		25
v 43.219 		-16.855 		10.01
v -20.832 		-40.713 		25
v 45.4 		-16.421 		10.01
v -17.633 		-39.048 		25
v -75.878 		-27.162 		10.01
v -73.587 		-29.948 		10.01
v 41 		-19.75 		10.01
v -71.081 		-32.542 		10.01
v 43.381 		-19.606 		10.01
v -2.545 		7.565 		25
v -70.003 		-25.998 		10.01
v -2.7 		8.089 		17.505
v 45.726 		-19.176 		10.01
v 48.471 		44.195 		25
v 48.003 		-18.467 		10.01
v 44.882 		44.734 		25
v -31.081 		-44.107 		10.01
v -70.003 		-25.998 		9.998
v -27.577 		-43.251 		10.01
v -50.849 		13.487 		10.01
v -24.154 		-42.118 		10.01
v -20.832 		-40.713 		10.01
v -17.633 		-39.048 		10.01
v -51.719 		16.254 		10.01
v -2.292 		6.906 		25
v -89.998 		-25.859 		25
v 1.706 		-23.79 		10.01
v 2.105 		-24.269 		10.01
v -19.998 		-33.003 		10.01
v -53.597 		14.783 		10.01
v -27.003 		-33.003 		10.01
v 36.6 		-16.421 		10.01
v -89.998 		-25.859 		5.003
v 0.619 		-23.195 		10.01
v 38.781 		-16.855 		10.01
v -55.283 		13.097 		10.01
v 1.2 		-23.424 		10.01
v 33.997 		-18.467 		10.01
v -68.376 		-34.926 		25
v -1.964 		6.612 		25
v 36.274 		-19.176 		10.01
v 41.26 		44.982 		25
v -19.998 		-33.003 		9.998
v -27.003 		-33.003 		9.998
v -65.859 		-49.998 		25
v 37.631 		44.938 		25
v 38.619 		-19.606 		10.01
v -1.85 		6.638 		17.505
v -52.521 		12.021 		10.01
v -53.987 		10.349 		10.01
v 34.017 		44.601 		25
v -55.222 		8.5 		10.01
v -68.376 		-34.926 		10.01
v -1.667 		6.902 		25
v -70.003 		-33.003 		10.01
v -56.754 		11.219 		10.01
v 48.471 		44.195 		10.01
v -1.451 		7.559 		25
v 44.882 		44.734 		10.01
v 41.26 		44.982 		10.01
v -65.859 		-49.998 		5.003
v 49.339 		-44.02 		25
v 37.631 		44.938 		10.01
v 52.856 		-43.124 		25
v 4.184 		-27.244 		10.01
v 56.29 		-41.948 		25
v 34.017 		44.601 		10.01
v -70.003 		-33.003 		9.998
v 59.618 		-40.499 		25
v 6.497 		-30.042 		10.01
v 62.818 		-38.786 		25
v 10 		38.73 		10.01
v 9.027 		-32.645 		10.01
v 10.074 		38.128 		10.01
v -57.988 		9.178 		10.01
v 10.636 		37.064 		10.01
v 14.998 		-25.998 		10.01
v 10.29 		37.561 		10.01
v -2.169 		6.72 		25
v 43.003 		39.003 		10.01
v 43.003 		39.003 		9.998
v 14.998 		-25.998 		9.998
v -56.206 		6.506 		10.01
v -56.921 		4.4 		10.01
v -57.355 		2.219 		10.01
v 35.998 		39.003 		10.01
v -49 		-14.722 		10.01
v -47.006 		-15.706 		10.01
v -33.994 		-15.706 		10.01
v 17.754 		-39.117 		25
v 35.998 		39.003 		9.998
v 20.979 		-40.782 		25
v 24.328 		-42.183 		25
v -58.967 		7.003 		10.01
v 27.779 		-43.309 		25
v 11.092 		36.664 		10.01
v -3.092 		9.912 		10.01
v 31.309 		-44.153 		25
v 11.631 		36.386 		10.01
v -59.676 		4.726 		10.01
v 13.414 		36.403 		10.01
v 64.003 		28.9133 		25
v 64.064 		28.869 		25
v 12.827 		36.251 		10.01
v 13.947 		36.691 		10.01
v 64.003 		28.785 		25
v 12.221 		36.245 		10.01
v -60.106 		2.381 		10.01
v -3.63 		13.234 		10.01
v 64.003 		28.9133 		10.01
v 64.064 		28.869 		10.01
v 17.754 		-39.117 		10.01
v 64.003 		28.785 		10.01
v -1.18 		8.914 		10.01
v 20.979 		-40.782 		10.01
v 24.328 		-42.183 		10.01
v 64.003 		32.002 		10.01
v 27.779 		-43.309 		10.01
v 56.998 		32.002 		10.01
v 31.822 		17.488 		10.01
v 31.309 		-44.153 		10.01
v 64.003 		24.998 		10.01
v -0.744 		12.762 		10.01
v 56.998 		24.998 		10.01
v 22.003 		32.002 		10.01
v 22.003 		24.998 		10.01
v 22.003 		-33.003 		10.01
v 22.003 		32.002 		9.998
v 22.003 		24.998 		9.998
v 22.003 		-33.003 		9.998
v 56.998 		32.002 		9.998
v 64.003 		32.002 		9.998
v 64.003 		24.998 		9.998
v 56.998 		24.998 		9.998
v 14.998 		32.002 		10.01
v 14.998 		24.998 		10.01
v -5.998 		15.003 		10.01
v 50.178 		17.488 		10.01
v 14.998 		32.002 		9.998
v 16.384 		-49.998 		25
v 14.998 		24.998 		9.998
v 11.759 		-35.035 		25
v 14.674 		-37.197 		25
v 11.759 		-35.035 		10.01
v 14.674 		-37.197 		10.01
v 14.998 		-33.003 		10.01
v -5.998 		15.003 		9.998
v 14.998 		-33.003 		9.998
v -13.003 		15.003 		10.01
v -13.003 		15.003 		9.998
v -2.616 		7.798 		10.01
v 0 		49.998 		25
v -2.309 		6.944 		10.01
v -1.952 		6.6 		10.01
v -2.113 		6.659 		10.01
v -1.644 		6.962 		10.01
v -1.408 		7.709 		10.01
v -10 		49.998 		25
v -10 		49.998 		10.01
v -5.998 		7.998 		10.01
v -25 		49.998 		10.01
v -25 		49.998 		25
v -25.066 		45.257 		25
v -25 		45.826 		25
v -5.998 		7.998 		9.998
v -27.592 		43.327 		25
v -28.158 		43.414 		25
v -27.021 		43.372 		25
v -26.475 		43.546 		25
v -25.983 		43.839 		25
v -25.57 		44.237 		25
v -25.259 		44.718 		25
v -31.672 		44.223 		25
# 921 vertices

g group_0_11909273

usemtl color_11909273
s 0

f 115 	8 	9
f 21 	14 	24
f 21 	24 	25
f 26 	41 	29
f 63 	584 	57
f 36 	438 	25
f 31 	29 	41
f 41 	43 	31
f 25 	109 	36
f 8 	31 	43
f 43 	44 	8
f 52 	482 	51
f 44 	45 	8
f 9 	8 	45
f 45 	47 	9
f 33 	9 	47
f 33 	47 	49
f 44 	131 	45
f 74 	77 	56
f 56 	55 	74
f 67 	74 	55
f 59 	78 	62
f 69 	66 	468
f 75 	223 	897
f 223 	218 	2
f 468 	51 	69
f 45 	241 	47
f 65 	199 	71
f 73 	71 	199
f 75 	20 	223
f 78 	59 	77
f 79 	62 	78
f 26 	96 	11
f 59 	56 	77
f 70 	62 	79
f 155 	23 	157
f 157 	23 	81
f 80 	614 	87
f 40 	42 	86
f 42 	50 	86
f 83 	86 	50
f 24 	398 	65
f 76 	73 	199
f 22 	20 	82
f 82 	20 	75
f 65 	109 	24
f 109 	25 	24
f 87 	614 	89
f 84 	93 	88
f 93 	67 	88
f 88 	67 	55
f 109 	65 	71
f 109 	71 	113
f 4 	57 	584
f 68 	584 	63
f 86 	182 	40
f 38 	40 	182
f 38 	182 	34
f 87 	89 	473
f 49 	47 	243
f 241 	243 	47
f 73 	119 	71
f 113 	71 	119
f 163 	237 	15
f 50 	453 	83
f 84 	85 	92
f 93 	84 	92
f 91 	92 	85
f 85 	95 	91
f 90 	91 	95
f 164 	15 	16
f 119 	73 	76
f 89 	94 	473
f 16 	17 	164
f 165 	164 	17
f 99 	157 	81
f 664 	668 	834
f 221 	12 	94
f 165 	17 	18
f 83 	102 	103
f 83 	103 	86
f 123 	872 	97
f 5 	133 	480
f 916 	166 	172
f 97 	104 	105
f 97 	105 	98
f 100 	76 	199
f 81 	152 	99
f 23 	884 	81
f 133 	5 	6
f 156 	76 	100
f 167 	156 	100
f 167 	100 	101
f 98 	105 	834
f 27 	129 	32
f 136 	32 	129
f 136 	37 	32
f 28 	149 	30
f 8 	115 	112
f 817 	814 	116
f 137 	912 	130
f 178 	35 	30
f 26 	11 	123
f 79 	11 	70
f 18 	19 	117
f 118 	117 	19
f 201 	39 	35
f 70 	11 	96
f 29 	96 	26
f 26 	123 	41
f 125 	41 	123
f 162 	915 	921
f 19 	368 	118
f 33 	49 	127
f 43 	41 	128
f 125 	128 	41
f 82 	897 	129
f 107 	108 	584
f 108 	111 	584
f 111 	408 	584
f 106 	107 	584
f 68 	106 	584
f 126 	36 	109
f 126 	109 	113
f 126 	113 	119
f 49 	135 	127
f 82 	129 	27
f 99 	152 	114
f 170 	571 	134
f 133 	134 	571
f 129 	590 	136
f 132 	52 	480
f 152 	158 	114
f 133 	132 	480
f 121 	114 	158
f 122 	121 	158
f 138 	888 	141
f 134 	133 	6
f 140 	127 	135
f 37 	136 	143
f 54 	36 	139
f 126 	139 	36
f 170 	134 	6
f 6 	7 	170
f 142 	140 	153
f 135 	153 	140
f 153 	154 	142
f 145 	142 	154
f 221 	94 	622
f 137 	130 	907
f 76 	150 	119
f 144 	141 	116
f 146 	144 	116
f 221 	149 	28
f 150 	76 	156
f 154 	155 	145
f 147 	145 	155
f 155 	157 	147
f 148 	147 	157
f 148 	157 	159
f 161 	914 	162
f 164 	165 	658
f 117 	658 	165
f 178 	30 	149
f 166 	914 	161
f 138 	141 	224
f 168 	148 	159
f 15 	164 	163
f 141 	144 	228
f 232 	228 	144
f 159 	175 	168
f 169 	168 	175
f 146 	232 	144
f 7 	835 	170
f 117 	165 	18
f 149 	400 	178
f 167 	226 	156
f 150 	156 	227
f 227 	126 	150
f 119 	150 	126
f 175 	176 	169
f 171 	169 	176
f 176 	177 	171
f 173 	171 	177
f 173 	177 	180
f 151 	181 	183
f 151 	183 	152
f 44 	43 	131
f 128 	131 	43
f 158 	186 	187
f 158 	187 	160
f 246 	34 	182
f 187 	186 	183
f 187 	183 	181
f 27 	22 	82
f 188 	184 	196
f 115 	110 	112
f 178 	400 	190
f 195 	162 	921
f 160 	187 	181
f 160 	181 	151
f 196 	197 	188
f 189 	188 	197
f 197 	198 	189
f 95 	189 	198
f 95 	198 	90
f 178 	190 	35
f 46 	48 	193
f 194 	193 	48
f 128 	125 	97
f 98 	131 	97
f 220 	191 	182
f 190 	400 	201
f 152 	183 	186
f 152 	186 	158
f 53 	237 	48
f 194 	48 	237
f 101 	100 	199
f 128 	97 	131
f 190 	201 	35
f 192 	58 	193
f 46 	193 	58
f 182 	191 	261
f 182 	261 	246
f 213 	214 	202
f 162 	195 	281
f 2 	897 	223
f 381 	2 	207
f 204 	202 	214
f 161 	162 	281
f 209 	60 	61
f 209 	61 	207
f 281 	282 	166
f 174 	172 	282
f 211 	205 	339
f 212 	211 	339
f 209 	207 	2
f 123 	97 	125
f 208 	220 	182
f 614 	622 	94
f 89 	614 	94
f 216 	217 	210
f 215 	216 	206
f 196 	184 	217
f 206 	204 	215
f 210 	217 	184
f 206 	216 	210
f 214 	215 	204
f 60 	209 	64
f 218 	64 	209
f 218 	209 	2
f 64 	218 	72
f 223 	72 	218
f 219 	212 	339
f 115 	9 	225
f 12 	476 	94
f 224 	141 	228
f 33 	230 	9
f 225 	9 	230
f 20 	72 	223
f 234 	229 	205
f 234 	205 	211
f 221 	28 	12
f 599 	230 	33
f 231 	238 	200
f 235 	234 	211
f 235 	211 	212
f 227 	156 	226
f 163 	51 	237
f 172 	166 	282
f 236 	45 	131
f 213 	200 	238
f 202 	200 	213
f 236 	241 	45
f 240 	232 	146
f 15 	237 	53
f 239 	235 	212
f 239 	212 	219
f 240 	146 	34
f 242 	222 	249
f 233 	848 	227
f 249 	256 	242
f 246 	248 	228
f 246 	228 	232
f 599 	499 	230
f 230 	499 	225
f 256 	263 	244
f 244 	242 	256
f 228 	248 	224
f 226 	252 	253
f 226 	253 	227
f 233 	255 	351
f 235 	239 	277
f 669 	277 	626
f 263 	264 	245
f 245 	244 	263
f 232 	240 	246
f 34 	246 	240
f 252 	351 	253
f 255 	253 	351
f 246 	261 	262
f 246 	262 	248
f 264 	265 	245
f 251 	245 	265
f 267 	268 	258
f 238 	231 	268
f 265 	267 	251
f 258 	268 	231
f 251 	267 	258
f 261 	191 	220
f 262 	261 	220
f 179 	282 	185
f 131 	98 	236
f 180 	278 	173
f 248 	262 	220
f 248 	220 	208
f 179 	174 	282
f 130 	185 	907
f 205 	229 	371
f 236 	98 	241
f 260 	921 	910
f 270 	173 	278
f 241 	98 	243
f 398 	379 	273
f 273 	269 	398
f 266 	910 	269
f 279 	280 	271
f 274 	271 	280
f 271 	270 	279
f 278 	279 	270
f 260 	195 	921
f 166 	161 	281
f 280 	297 	274
f 283 	274 	297
f 303 	260 	266
f 229 	234 	277
f 309 	229 	277
f 297 	298 	283
f 269 	308 	266
f 303 	266 	308
f 408 	111 	270
f 173 	270 	111
f 276 	290 	292
f 276 	292 	277
f 907 	185 	282
f 590 	514 	282
f 286 	283 	298
f 298 	299 	286
f 273 	312 	269
f 308 	269 	312
f 271 	413 	270
f 408 	270 	413
f 281 	294 	296
f 281 	296 	282
f 288 	286 	299
f 299 	301 	288
f 273 	379 	312
f 413 	271 	274
f 294 	597 	296
f 277 	292 	309
f 300 	195 	260
f 281 	618 	294
f 291 	288 	301
f 301 	302 	291
f 295 	291 	302
f 295 	304 	222
f 302 	304 	295
f 597 	590 	296
f 282 	296 	590
f 471 	505 	62
f 300 	260 	303
f 278 	180 	124
f 249 	222 	304
f 307 	345 	306
f 255 	227 	253
f 233 	227 	255
f 278 	431 	279
f 306 	305 	254
f 306 	254 	257
f 257 	272 	306
f 307 	306 	272
f 309 	418 	229
f 234 	235 	277
f 199 	313 	101
f 67 	93 	363
f 313 	199 	314
f 316 	314 	199
f 323 	309 	317
f 303 	308 	324
f 312 	324 	308
f 300 	303 	324
f 322 	324 	312
f 16 	15 	22
f 22 	27 	16
f 17 	16 	27
f 378 	389 	311
f 317 	292 	290
f 648 	646 	774
f 199 	774 	646
f 199 	646 	318
f 318 	316 	199
f 195 	300 	281
f 292 	317 	309
f 321 	167 	313
f 101 	313 	167
f 27 	32 	17
f 18 	17 	32
f 32 	37 	18
f 19 	18 	37
f 37 	310 	19
f 284 	319 	285
f 67 	363 	74
f 321 	313 	314
f 321 	314 	325
f 319 	376 	475
f 312 	410 	322
f 276 	673 	519
f 46 	58 	60
f 60 	64 	46
f 319 	326 	287
f 319 	287 	285
f 325 	314 	316
f 325 	316 	327
f 324 	281 	300
f 326 	475 	330
f 64 	72 	48
f 53 	48 	72
f 53 	20 	15
f 78 	486 	79
f 318 	331 	316
f 327 	316 	331
f 317 	329 	323
f 289 	287 	330
f 326 	330 	287
f 322 	332 	333
f 322 	333 	324
f 79 	486 	11
f 290 	329 	317
f 318 	660 	331
f 323 	329 	290
f 323 	290 	276
f 774 	199 	203
f 311 	315 	334
f 900 	334 	315
f 84 	538 	85
f 22 	15 	20
f 20 	53 	72
f 48 	46 	64
f 61 	60 	58
f 330 	335 	293
f 330 	293 	289
f 88 	528 	84
f 337 	327 	233
f 343 	368 	310
f 328 	900 	320
f 328 	334 	900
f 205 	371 	339
f 85 	538 	516
f 85 	516 	95
f 349 	353 	338
f 338 	336 	349
f 343 	349 	336
f 305 	306 	345
f 346 	305 	345
f 327 	337 	325
f 337 	226 	325
f 331 	233 	327
f 321 	325 	226
f 167 	321 	226
f 353 	354 	340
f 340 	338 	353
f 560 	91 	90
f 560 	90 	519
f 431 	434 	280
f 431 	280 	279
f 351 	337 	233
f 92 	91 	560
f 348 	514 	352
f 346 	345 	247
f 346 	247 	250
f 354 	355 	340
f 344 	340 	355
f 356 	344 	355
f 357 	350 	356
f 373 	350 	357
f 344 	356 	350
f 514 	359 	352
f 254 	305 	250
f 346 	250 	305
f 337 	351 	252
f 337 	252 	226
f 358 	339 	360
f 322 	417 	342
f 362 	360 	339
f 393 	394 	377
f 361 	393 	375
f 310 	368 	19
f 365 	362 	339
f 341 	370 	372
f 341 	372 	342
f 336 	368 	343
f 372 	370 	333
f 372 	333 	332
f 369 	474 	374
f 367 	365 	339
f 371 	367 	339
f 332 	322 	372
f 342 	372 	322
f 280 	434 	297
f 275 	259 	374
f 374 	259 	369
f 474 	475 	376
f 374 	474 	376
f 341 	324 	370
f 333 	370 	324
f 359 	900 	352
f 364 	900 	359
f 366 	900 	364
f 320 	900 	366
f 521 	291 	295
f 358 	360 	392
f 399 	392 	360
f 357 	361 	373
f 275 	374 	284
f 376 	284 	374
f 362 	399 	360
f 56 	502 	55
f 284 	376 	319
f 505 	56 	59
f 418 	367 	371
f 377 	375 	393
f 375 	373 	361
f 59 	62 	505
f 371 	229 	418
f 708 	330 	475
f 326 	319 	475
f 379 	398 	380
f 382 	2 	381
f 492 	501 	381
f 388 	380 	398
f 594 	382 	385
f 387 	384 	396
f 395 	396 	384
f 397 	387 	396
f 384 	383 	395
f 394 	395 	383
f 383 	377 	394
f 381 	401 	402
f 381 	402 	382
f 14 	391 	398
f 391 	390 	398
f 390 	388 	398
f 403 	399 	362
f 385 	405 	406
f 385 	406 	386
f 387 	397 	404
f 410 	312 	379
f 406 	405 	402
f 406 	402 	401
f 362 	365 	403
f 409 	403 	365
f 397 	421 	404
f 407 	404 	421
f 410 	379 	380
f 410 	380 	414
f 570 	474 	400
f 474 	412 	400
f 369 	412 	474
f 201 	400 	412
f 365 	367 	409
f 415 	409 	367
f 414 	380 	388
f 414 	388 	417
f 418 	415 	367
f 274 	419 	413
f 386 	406 	401
f 386 	401 	381
f 417 	388 	390
f 417 	390 	425
f 421 	422 	407
f 411 	407 	422
f 422 	423 	411
f 416 	411 	423
f 274 	283 	419
f 425 	390 	391
f 425 	391 	426
f 315 	311 	389
f 382 	402 	405
f 382 	405 	385
f 400 	420 	570
f 124 	429 	278
f 426 	391 	21
f 14 	21 	391
f 429 	431 	278
f 428 	427 	435
f 311 	334 	432
f 39 	201 	433
f 412 	433 	201
f 392 	399 	689
f 403 	689 	399
f 418 	309 	415
f 409 	415 	323
f 403 	409 	323
f 323 	415 	309
f 435 	436 	428
f 430 	428 	436
f 436 	437 	430
f 58 	430 	437
f 58 	437 	61
f 482 	427 	428
f 426 	21 	438
f 21 	25 	438
f 412 	259 	433
f 369 	259 	412
f 430 	482 	428
f 413 	584 	408
f 419 	584 	413
f 414 	322 	410
f 417 	322 	414
f 425 	426 	342
f 438 	342 	426
f 417 	425 	342
f 583 	342 	438
f 122 	158 	124
f 431 	429 	591
f 443 	793 	454
f 450 	451 	440
f 429 	124 	591
f 366 	447 	320
f 442 	116 	445
f 339 	358 	116
f 445 	116 	358
f 449 	203 	398
f 203 	199 	398
f 443 	454 	494
f 496 	494 	454
f 431 	591 	434
f 463 	432 	334
f 453 	50 	442
f 438 	36 	455
f 54 	455 	36
f 454 	793 	458
f 459 	453 	442
f 459 	442 	445
f 457 	460 	448
f 452 	457 	446
f 446 	444 	452
f 435 	427 	460
f 451 	452 	444
f 448 	460 	427
f 446 	457 	448
f 444 	440 	451
f 320 	447 	328
f 456 	328 	447
f 493 	283 	286
f 445 	358 	459
f 392 	459 	358
f 613 	455 	54
f 139 	613 	54
f 440 	573 	439
f 571 	439 	573
f 440 	439 	450
f 462 	450 	439
f 471 	62 	70
f 461 	458 	793
f 116 	120 	339
f 339 	120 	347
f 328 	456 	334
f 463 	334 	456
f 444 	552 	440
f 453 	459 	83
f 689 	83 	459
f 446 	552 	444
f 463 	456 	432
f 536 	897 	447
f 363 	511 	74
f 793 	888 	461
f 35 	39 	7
f 74 	511 	77
f 438 	455 	613
f 438 	613 	583
f 77 	483 	78
f 498 	496 	454
f 498 	454 	458
f 288 	495 	286
f 272 	293 	467
f 293 	462 	467
f 439 	467 	462
f 512 	184 	188
f 423 	424 	416
f 458 	461 	498
f 500 	498 	461
f 188 	189 	512
f 515 	512 	189
f 518 	495 	291
f 503 	500 	461
f 503 	461 	464
f 468 	416 	472
f 424 	472 	416
f 95 	516 	189
f 515 	189 	516
f 521 	518 	291
f 464 	765 	503
f 90 	198 	519
f 471 	70 	477
f 196 	217 	523
f 197 	196 	523
f 473 	476 	469
f 470 	469 	476
f 469 	468 	473
f 472 	473 	468
f 596 	477 	70
f 310 	629 	343
f 527 	299 	298
f 484 	192 	51
f 194 	51 	193
f 192 	193 	51
f 476 	12 	470
f 481 	554 	427
f 485 	78 	483
f 527 	301 	299
f 475 	478 	779
f 5 	480 	28
f 12 	28 	480
f 480 	470 	12
f 482 	481 	427
f 524 	349 	343
f 485 	486 	78
f 474 	487 	488
f 474 	488 	475
f 537 	302 	301
f 484 	482 	430
f 478 	489 	490
f 478 	490 	479
f 28 	30 	5
f 465 	7 	39
f 6 	5 	30
f 7 	6 	35
f 30 	35 	6
f 490 	489 	488
f 490 	488 	487
f 373 	657 	350
f 58 	192 	484
f 58 	484 	430
f 596 	115 	477
f 419 	283 	491
f 479 	490 	487
f 479 	487 	474
f 475 	488 	489
f 475 	489 	478
f 465 	433 	466
f 492 	381 	207
f 501 	497 	381
f 386 	381 	497
f 483 	511 	870
f 491 	283 	493
f 247 	466 	259
f 437 	492 	207
f 437 	207 	61
f 493 	286 	495
f 259 	275 	247
f 250 	247 	275
f 275 	284 	250
f 355 	569 	356
f 291 	495 	288
f 497 	435 	460
f 569 	357 	356
f 254 	250 	284
f 284 	285 	254
f 608 	361 	357
f 435 	497 	436
f 501 	436 	497
f 499 	55 	502
f 447 	897 	456
f 583 	608 	342
f 342 	561 	341
f 56 	505 	502
f 437 	436 	501
f 437 	501 	492
f 509 	510 	507
f 907 	508 	348
f 518 	584 	495
f 493 	495 	584
f 512 	506 	184
f 497 	517 	386
f 513 	587 	386
f 508 	514 	348
f 336 	338 	507
f 509 	507 	338
f 483 	77 	511
f 452 	513 	457
f 479 	494 	496
f 498 	478 	496
f 500 	503 	478
f 779 	478 	503
f 765 	779 	503
f 498 	500 	478
f 479 	496 	478
f 285 	287 	254
f 257 	254 	287
f 287 	289 	257
f 272 	257 	289
f 272 	289 	293
f 510 	509 	338
f 510 	338 	340
f 513 	386 	517
f 259 	466 	433
f 433 	465 	39
f 519 	198 	520
f 457 	513 	460
f 517 	460 	513
f 340 	344 	510
f 502 	505 	115
f 471 	115 	505
f 477 	115 	471
f 511 	363 	666
f 666 	870 	511
f 541 	530 	341
f 530 	609 	341
f 460 	517 	497
f 702 	525 	522
f 526 	197 	523
f 524 	343 	629
f 527 	298 	504
f 359 	514 	529
f 526 	520 	197
f 198 	197 	520
f 524 	609 	530
f 529 	532 	364
f 529 	364 	359
f 715 	713 	702
f 301 	527 	531
f 533 	793 	534
f 364 	532 	366
f 536 	366 	532
f 301 	531 	537
f 349 	524 	530
f 516 	1 	515
f 538 	1 	516
f 528 	1 	538
f 512 	515 	1
f 535 	522 	525
f 535 	525 	540
f 447 	366 	536
f 553 	552 	446
f 525 	733 	540
f 520 	526 	276
f 526 	523 	276
f 529 	514 	590
f 448 	554 	446
f 553 	446 	554
f 521 	584 	518
f 647 	584 	521
f 491 	493 	584
f 550 	702 	546
f 353 	349 	541
f 530 	541 	349
f 323 	276 	523
f 508 	282 	514
f 529 	590 	532
f 554 	448 	427
f 542 	793 	543
f 543 	793 	443
f 541 	544 	354
f 541 	354 	353
f 527 	638 	531
f 534 	551 	533
f 585 	451 	450
f 217 	216 	545
f 556 	534 	539
f 523 	217 	545
f 585 	452 	451
f 558 	556 	539
f 558 	539 	542
f 432 	378 	311
f 543 	558 	542
f 297 	434 	547
f 549 	656 	548
f 657 	656 	549
f 702 	522 	546
f 559 	557 	546
f 432 	645 	378
f 443 	494 	543
f 523 	545 	323
f 545 	588 	323
f 624 	689 	588
f 623 	689 	624
f 547 	504 	298
f 547 	298 	297
f 344 	548 	510
f 528 	538 	84
f 552 	553 	132
f 553 	554 	132
f 554 	481 	132
f 482 	132 	481
f 549 	548 	344
f 549 	344 	350
f 551 	534 	555
f 504 	825 	527
f 547 	593 	504
f 339 	347 	546
f 434 	593 	547
f 556 	555 	534
f 584 	204 	206
f 569 	561 	342
f 544 	341 	561
f 541 	341 	544
f 564 	92 	560
f 563 	558 	543
f 584 	206 	210
f 559 	546 	562
f 354 	544 	355
f 561 	355 	544
f 92 	564 	93
f 567 	93 	564
f 494 	563 	543
f 562 	546 	565
f 567 	363 	93
f 506 	210 	184
f 565 	546 	568
f 568 	546 	522
f 803 	801 	570
f 570 	551 	555
f 561 	569 	355
f 389 	566 	441
f 528 	582 	1
f 132 	571 	573
f 132 	573 	552
f 441 	315 	389
f 213 	620 	214
f 569 	574 	357
f 519 	520 	276
f 560 	519 	673
f 560 	673 	564
f 575 	572 	557
f 575 	557 	559
f 556 	474 	555
f 558 	474 	556
f 570 	555 	474
f 474 	558 	479
f 494 	479 	563
f 563 	479 	558
f 623 	624 	214
f 576 	575 	559
f 576 	559 	562
f 570 	577 	816
f 570 	816 	803
f 574 	608 	357
f 215 	624 	216
f 363 	567 	666
f 573 	440 	552
f 420 	766 	577
f 578 	576 	562
f 578 	562 	565
f 590 	897 	532
f 588 	545 	216
f 579 	578 	565
f 579 	565 	568
f 692 	708 	580
f 204 	581 	202
f 610 	202 	581
f 420 	577 	570
f 522 	535 	579
f 522 	579 	568
f 450 	462 	580
f 586 	506 	1
f 499 	1 	582
f 584 	581 	204
f 126 	227 	583
f 708 	699 	580
f 582 	528 	88
f 586 	584 	210
f 580 	585 	450
f 499 	582 	55
f 88 	55 	582
f 585 	699 	587
f 629 	310 	37
f 586 	210 	506
f 870 	666 	578
f 576 	666 	575
f 578 	579 	859
f 535 	859 	579
f 587 	452 	585
f 160 	591 	158
f 513 	452 	587
f 609 	143 	590
f 219 	339 	592
f 610 	581 	584
f 506 	512 	1
f 1 	4 	584
f 584 	586 	1
f 115 	225 	499
f 499 	502 	115
f 110 	115 	596
f 1 	499 	599
f 339 	546 	592
f 600 	601 	633
f 595 	592 	546
f 589 	902 	382
f 591 	902 	589
f 604 	605 	642
f 598 	595 	546
f 605 	607 	642
f 594 	785 	593
f 591 	593 	434
f 591 	124 	158
f 574 	342 	608
f 569 	342 	574
f 80 	233 	614
f 200 	202 	606
f 610 	606 	202
f 589 	611 	612
f 589 	612 	591
f 596 	70 	96
f 609 	281 	341
f 324 	341 	281
f 139 	126 	613
f 583 	613 	126
f 593 	616 	617
f 593 	617 	594
f 597 	618 	609
f 597 	609 	590
f 110 	596 	96
f 617 	616 	612
f 617 	612 	611
f 620 	213 	678
f 294 	618 	597
f 891 	890 	888
f 623 	214 	620
f 609 	618 	281
f 33 	127 	599
f 594 	617 	611
f 594 	611 	589
f 215 	214 	624
f 621 	619 	742
f 742 	682 	621
f 682 	681 	605
f 605 	604 	682
f 604 	621 	682
f 588 	216 	624
f 1 	599 	127
f 149 	221 	622
f 400 	149 	759
f 591 	612 	616
f 591 	616 	593
f 619 	663 	615
f 602 	598 	546
f 603 	602 	546
f 603 	546 	557
f 672 	619 	621
f 219 	592 	239
f 626 	239 	592
f 323 	588 	689
f 622 	627 	693
f 672 	621 	643
f 604 	643 	621
f 136 	590 	143
f 629 	143 	609
f 629 	609 	524
f 628 	626 	592
f 628 	592 	595
f 693 	627 	625
f 630 	628 	595
f 630 	595 	598
f 631 	786 	304
f 772 	361 	608
f 631 	304 	537
f 302 	537 	304
f 37 	143 	629
f 634 	630 	598
f 634 	598 	602
f 637 	634 	602
f 637 	602 	603
f 656 	118 	368
f 633 	640 	600
f 614 	625 	627
f 614 	627 	622
f 507 	368 	336
f 639 	636 	694
f 635 	694 	636
f 642 	643 	604
f 550 	546 	347
f 549 	350 	657
f 632 	694 	635
f 607 	644 	642
f 657 	373 	375
f 419 	491 	584
f 647 	780 	584
f 606 	584 	649
f 584 	606 	610
f 640 	644 	607
f 640 	607 	600
f 628 	669 	626
f 662 	669 	637
f 637 	572 	662
f 645 	650 	378
f 664 	632 	635
f 648 	774 	651
f 645 	653 	650
f 652 	651 	774
f 633 	594 	640
f 643 	642 	385
f 667 	672 	386
f 653 	655 	650
f 521 	295 	647
f 647 	295 	222
f 194 	237 	51
f 164 	658 	163
f 510 	548 	656
f 118 	656 	658
f 507 	510 	656
f 117 	118 	658
f 658 	656 	657
f 768 	163 	658
f 654 	652 	774
f 603 	557 	637
f 572 	637 	557
f 640 	385 	644
f 644 	385 	642
f 660 	318 	646
f 222 	242 	647
f 780 	647 	242
f 660 	646 	648
f 660 	648 	661
f 661 	648 	651
f 661 	651 	665
f 662 	575 	666
f 635 	668 	664
f 665 	651 	652
f 665 	652 	670
f 258 	231 	649
f 667 	663 	619
f 636 	671 	635
f 668 	635 	671
f 670 	652 	654
f 670 	654 	675
f 537 	638 	631
f 531 	638 	537
f 208 	786 	638
f 248 	208 	875
f 875 	866 	248
f 671 	636 	639
f 671 	639 	674
f 672 	667 	619
f 276 	277 	673
f 673 	277 	669
f 239 	626 	277
f 231 	200 	649
f 606 	649 	200
f 674 	639 	641
f 674 	641 	676
f 654 	700 	734
f 675 	654 	734
f 564 	673 	567
f 666 	567 	673
f 576 	578 	666
f 678 	238 	268
f 385 	386 	672
f 643 	385 	672
f 663 	667 	699
f 368 	507 	656
f 213 	238 	678
f 661 	614 	660
f 638 	677 	875
f 760 	655 	845
f 671 	873 	668
f 674 	873 	671
f 676 	873 	674
f 622 	680 	734
f 335 	462 	293
f 658 	657 	375
f 692 	580 	462
f 628 	630 	669
f 630 	634 	669
f 634 	637 	669
f 575 	662 	572
f 620 	688 	623
f 688 	689 	623
f 403 	323 	689
f 601 	683 	633
f 768 	658 	375
f 679 	614 	661
f 661 	665 	679
f 680 	679 	675
f 670 	679 	665
f 675 	679 	670
f 734 	680 	675
f 678 	688 	620
f 785 	683 	684
f 666 	685 	686
f 662 	666 	686
f 679 	687 	625
f 679 	625 	614
f 681 	785 	684
f 335 	330 	708
f 699 	667 	386
f 386 	587 	699
f 585 	580 	699
f 335 	708 	692
f 669 	690 	691
f 673 	669 	691
f 693 	680 	622
f 335 	692 	462
f 691 	690 	686
f 691 	686 	685
f 625 	687 	693
f 459 	392 	689
f 705 	695 	702
f 688 	696 	697
f 688 	697 	689
f 673 	691 	685
f 673 	685 	666
f 680 	693 	687
f 680 	687 	679
f 696 	103 	697
f 102 	697 	103
f 696 	688 	103
f 86 	103 	688
f 845 	655 	653
f 662 	686 	690
f 662 	690 	669
f 705 	698 	695
f 694 	702 	695
f 689 	697 	102
f 689 	102 	83
f 393 	361 	772
f 716 	701 	699
f 641 	639 	694
f 710 	732 	694
f 772 	394 	393
f 550 	705 	702
f 700 	774 	703
f 244 	780 	242
f 708 	475 	779
f 711 	732 	710
f 712 	731 	711
f 714 	731 	712
f 707 	774 	709
f 525 	702 	713
f 746 	244 	245
f 708 	716 	699
f 842 	421 	397
f 710 	820 	711
f 251 	746 	245
f 717 	715 	702
f 716 	792 	701
f 700 	703 	736
f 404 	407 	832
f 249 	304 	786
f 779 	716 	708
f 706 	739 	703
f 736 	703 	739
f 832 	407 	411
f 707 	739 	706
f 718 	702 	719
f 718 	717 	702
f 713 	733 	525
f 411 	416 	66
f 733 	713 	715
f 733 	715 	735
f 707 	709 	754
f 735 	715 	717
f 249 	786 	256
f 789 	256 	786
f 842 	848 	422
f 842 	422 	421
f 717 	718 	740
f 838 	891 	888
f 615 	723 	888
f 722 	888 	723
f 607 	605 	681
f 601 	600 	681
f 681 	683 	601
f 684 	683 	681
f 709 	774 	724
f 719 	741 	718
f 740 	718 	741
f 848 	423 	422
f 726 	725 	722
f 726 	722 	723
f 256 	789 	263
f 756 	709 	724
f 714 	727 	728
f 714 	728 	729
f 714 	729 	730
f 714 	730 	731
f 732 	711 	731
f 641 	694 	732
f 423 	80 	424
f 787 	801 	724
f 723 	663 	726
f 615 	663 	723
f 755 	264 	263
f 375 	377 	768
f 757 	265 	264
f 734 	700 	736
f 663 	699 	726
f 699 	777 	726
f 725 	726 	777
f 717 	737 	735
f 267 	265 	757
f 721 	389 	738
f 737 	717 	740
f 738 	720 	721
f 600 	607 	681
f 464 	461 	888
f 678 	268 	763
f 743 	464 	888
f 734 	736 	622
f 736 	739 	622
f 739 	759 	622
f 622 	759 	149
f 749 	746 	251
f 745 	743 	888
f 739 	707 	753
f 251 	258 	749
f 751 	749 	258
f 745 	888 	747
f 737 	867 	735
f 805 	828 	741
f 740 	867 	737
f 535 	540 	865
f 806 	704 	738
f 753 	707 	754
f 387 	800 	384
f 649 	751 	258
f 844 	727 	714
f 709 	756 	754
f 750 	747 	888
f 752 	750 	888
f 752 	888 	722
f 404 	800 	387
f 765 	464 	743
f 728 	727 	844
f 389 	378 	650
f 758 	806 	659
f 650 	659 	738
f 389 	650 	738
f 745 	765 	743
f 264 	755 	757
f 730 	852 	731
f 761 	267 	757
f 758 	659 	760
f 770 	747 	750
f 719 	702 	762
f 852 	730 	729
f 267 	761 	268
f 763 	268 	761
f 659 	650 	760
f 752 	770 	750
f 756 	759 	754
f 753 	754 	759
f 739 	753 	759
f 722 	725 	752
f 764 	762 	702
f 738 	659 	806
f 584 	749 	751
f 649 	584 	751
f 655 	760 	650
f 719 	762 	805
f 741 	719 	805
f 420 	759 	766
f 400 	759 	420
f 767 	765 	745
f 744 	742 	619
f 619 	615 	744
f 755 	182 	757
f 805 	762 	764
f 805 	764 	807
f 745 	747 	767
f 769 	767 	747
f 816 	577 	766
f 383 	797 	377
f 768 	377 	797
f 747 	770 	769
f 818 	742 	744
f 608 	583 	772
f 771 	770 	752
f 694 	820 	710
f 821 	818 	744
f 821 	744 	748
f 757 	182 	761
f 761 	182 	763
f 890 	821 	748
f 725 	771 	752
f 678 	763 	688
f 706 	774 	707
f 793 	724 	774
f 706 	703 	774
f 774 	700 	654
f 901 	773 	758
f 227 	804 	583
f 772 	583 	778
f 775 	681 	682
f 775 	682 	776
f 820 	695 	698
f 767 	769 	779
f 769 	770 	779
f 777 	779 	770
f 774 	781 	793
f 394 	772 	778
f 758 	760 	901
f 683 	782 	633
f 783 	780 	244
f 711 	820 	822
f 778 	583 	784
f 758 	773 	806
f 785 	782 	683
f 767 	779 	765
f 783 	244 	746
f 781 	774 	203
f 395 	394 	784
f 778 	784 	394
f 775 	785 	681
f 793 	787 	724
f 770 	771 	777
f 771 	725 	777
f 807 	764 	808
f 396 	395 	784
f 694 	794 	702
f 777 	791 	792
f 777 	792 	779
f 795 	263 	789
f 791 	701 	792
f 539 	793 	542
f 534 	793 	539
f 787 	793 	533
f 764 	702 	790
f 800 	163 	798
f 768 	797 	163
f 798 	163 	797
f 755 	263 	795
f 731 	849 	732
f 756 	724 	801
f 799 	694 	632
f 794 	694 	799
f 790 	702 	794
f 716 	779 	792
f 749 	584 	746
f 746 	584 	783
f 780 	783 	584
f 801 	787 	551
f 533 	551 	787
f 383 	384 	797
f 798 	797 	384
f 852 	729 	855
f 764 	790 	808
f 631 	638 	786
f 182 	755 	208
f 795 	208 	755
f 790 	794 	808
f 811 	808 	794
f 701 	791 	777
f 701 	777 	699
f 781 	809 	793
f 728 	847 	729
f 800 	798 	384
f 786 	208 	789
f 799 	811 	794
f 789 	208 	795
f 824 	714 	826
f 712 	826 	714
f 664 	799 	632
f 551 	570 	801
f 785 	594 	782
f 385 	640 	594
f 775 	593 	785
f 776 	813 	593
f 775 	776 	593
f 120 	888 	809
f 793 	809 	888
f 638 	875 	208
f 86 	688 	182
f 688 	763 	182
f 756 	801 	803
f 756 	803 	759
f 806 	802 	904
f 782 	594 	633
f 835 	7 	465
f 396 	784 	804
f 712 	711 	826
f 822 	826 	711
f 836 	835 	465
f 836 	465 	466
f 116 	810 	146
f 862 	704 	806
f 853 	676 	732
f 116 	812 	810
f 836 	466 	247
f 813 	776 	742
f 682 	742 	776
f 811 	799 	815
f 695 	820 	694
f 813 	742 	818
f 823 	397 	804
f 815 	799 	664
f 806 	905 	862
f 814 	812 	116
f 823 	227 	842
f 227 	823 	804
f 784 	583 	804
f 116 	442 	819
f 819 	817 	116
f 802 	788 	796
f 781 	203 	449
f 638 	527 	825
f 834 	828 	811
f 811 	815 	834
f 815 	664 	834
f 873 	834 	668
f 808 	811 	828
f 396 	804 	397
f 34 	146 	810
f 38 	34 	810
f 38 	810 	812
f 894 	825 	821
f 818 	821 	825
f 813 	818 	825
f 307 	272 	467
f 97 	867 	828
f 823 	842 	397
f 812 	814 	38
f 40 	38 	814
f 766 	759 	816
f 803 	816 	759
f 825 	593 	813
f 504 	593 	825
f 839 	829 	828
f 42 	40 	814
f 42 	814 	817
f 825 	830 	677
f 825 	677 	638
f 641 	732 	676
f 827 	903 	788
f 830 	896 	677
f 839 	105 	829
f 69 	163 	66
f 51 	163 	69
f 832 	163 	831
f 833 	163 	832
f 66 	163 	833
f 800 	831 	163
f 482 	484 	51
f 817 	819 	42
f 50 	42 	819
f 825 	894 	830
f 104 	97 	829
f 828 	829 	97
f 442 	50 	819
f 831 	800 	404
f 805 	807 	828
f 807 	808 	828
f 832 	831 	404
f 705 	550 	449
f 809 	449 	120
f 826 	822 	441
f 824 	826 	441
f 833 	832 	411
f 482 	52 	132
f 835 	571 	170
f 836 	571 	835
f 345 	571 	836
f 132 	133 	571
f 837 	345 	307
f 571 	345 	837
f 834 	839 	828
f 822 	820 	441
f 66 	833 	411
f 104 	829 	105
f 827 	802 	773
f 788 	802 	827
f 806 	773 	802
f 660 	614 	233
f 331 	660 	233
f 698 	441 	820
f 834 	105 	839
f 247 	345 	836
f 844 	714 	824
f 843 	841 	888
f 347 	449 	550
f 728 	844 	847
f 837 	307 	467
f 842 	227 	848
f 731 	852 	849
f 846 	888 	138
f 843 	888 	846
f 116 	141 	888
f 853 	732 	849
f 837 	467 	571
f 467 	439 	571
f 851 	850 	854
f 856 	233 	80
f 848 	233 	856
f 857 	653 	645
f 863 	860 	838
f 863 	838 	840
f 855 	729 	847
f 848 	856 	423
f 416 	468 	66
f 841 	863 	840
f 432 	857 	645
f 468 	469 	51
f 844 	824 	441
f 856 	80 	423
f 869 	843 	846
f 847 	441 	855
f 844 	441 	847
f 51 	469 	470
f 51 	470 	52
f 809 	781 	449
f 138 	224 	869
f 138 	869 	846
f 855 	883 	852
f 849 	852 	883
f 883 	873 	853
f 858 	850 	851
f 858 	851 	859
f 857 	845 	653
f 849 	883 	853
f 480 	52 	470
f 861 	859 	854
f 851 	854 	859
f 398 	24 	14
f 424 	80 	472
f 87 	472 	80
f 854 	850 	858
f 854 	858 	861
f 738 	704 	862
f 87 	473 	472
f 199 	65 	398
f 864 	863 	841
f 735 	867 	733
f 473 	94 	476
f 841 	843 	864
f 866 	864 	843
f 865 	733 	867
f 740 	741 	867
f 868 	135 	49
f 868 	49 	243
f 843 	869 	866
f 10 	153 	868
f 871 	720 	862
f 676 	853 	873
f 874 	884 	23
f 867 	741 	828
f 864 	875 	863
f 860 	863 	875
f 894 	893 	875
f 867 	97 	872
f 871 	721 	720
f 98 	874 	243
f 10 	868 	874
f 98 	834 	873
f 873 	874 	98
f 13 	10 	874
f 23 	13 	874
f 868 	243 	874
f 859 	535 	858
f 865 	858 	535
f 733 	865 	540
f 876 	873 	883
f 389 	721 	871
f 864 	866 	875
f 869 	248 	866
f 224 	248 	869
f 859 	861 	578
f 870 	578 	861
f 566 	389 	871
f 875 	878 	894
f 867 	879 	880
f 867 	880 	865
f 873 	876 	877
f 873 	877 	874
f 870 	881 	882
f 870 	882 	872
f 720 	738 	862
f 882 	881 	880
f 882 	880 	879
f 879 	867 	882
f 872 	882 	867
f 120 	449 	347
f 152 	81 	884
f 870 	861 	881
f 880 	881 	861
f 861 	858 	880
f 865 	880 	858
f 677 	878 	875
f 486 	886 	11
f 886 	123 	11
f 151 	152 	441
f 566 	151 	441
f 152 	884 	441
f 884 	883 	441
f 883 	855 	441
f 885 	908 	857
f 845 	857 	908
f 876 	883 	887
f 877 	889 	884
f 877 	884 	874
f 486 	485 	872
f 870 	872 	485
f 483 	870 	485
f 886 	486 	872
f 123 	886 	872
f 889 	877 	887
f 876 	887 	877
f 845 	908 	899
f 857 	432 	885
f 116 	888 	120
f 884 	889 	887
f 884 	887 	883
f 96 	29 	110
f 31 	112 	29
f 110 	29 	112
f 432 	456 	897
f 112 	31 	8
f 1 	127 	140
f 1 	140 	142
f 841 	840 	888
f 840 	838 	888
f 615 	888 	890
f 890 	748 	615
f 748 	744 	615
f 151 	871 	160
f 147 	148 	68
f 892 	821 	890
f 566 	871 	151
f 148 	168 	68
f 893 	892 	890
f 893 	890 	891
f 905 	160 	862
f 891 	838 	893
f 860 	893 	838
f 99 	159 	157
f 862 	160 	871
f 99 	114 	159
f 860 	875 	893
f 106 	68 	168
f 892 	893 	894
f 821 	892 	894
f 169 	107 	168
f 106 	168 	107
f 107 	169 	171
f 107 	171 	108
f 878 	896 	894
f 173 	111 	171
f 108 	171 	111
f 885 	895 	908
f 114 	175 	159
f 114 	121 	176
f 114 	176 	175
f 885 	432 	897
f 536 	532 	897
f 878 	677 	896
f 177 	176 	122
f 121 	122 	176
f 122 	124 	180
f 122 	180 	177
f 82 	75 	897
f 590 	129 	897
f 897 	898 	895
f 897 	895 	885
f 1 	142 	4
f 830 	894 	896
f 145 	57 	142
f 4 	142 	57
f 57 	145 	147
f 57 	147 	63
f 897 	2 	898
f 3 	898 	2
f 147 	68 	63
f 845 	899 	760
f 135 	868 	153
f 154 	153 	13
f 10 	13 	153
f 155 	154 	23
f 13 	23 	154
f 899 	901 	760
f 902 	788 	903
f 902 	796 	788
f 904 	796 	902
f 904 	802 	796
f 315 	698 	900
f 905 	806 	904
f 698 	315 	441
f 827 	901 	903
f 827 	773 	901
f 348 	906 	907
f 348 	900 	906
f 348 	352 	900
f 900 	698 	907
f 900 	907 	906
f 908 	382 	901
f 907 	282 	508
f 594 	589 	382
f 899 	908 	901
f 705 	449 	698
f 903 	382 	902
f 160 	904 	591
f 912 	909 	910
f 160 	905 	904
f 398 	269 	910
f 398 	910 	909
f 902 	591 	904
f 909 	137 	907
f 449 	398 	909
f 907 	698 	449
f 909 	907 	449
f 185 	130 	920
f 912 	911 	130
f 901 	382 	903
f 137 	909 	912
f 3 	2 	913
f 908 	913 	2
f 3 	913 	895
f 911 	912 	915
f 921 	915 	910
f 266 	260 	910
f 895 	913 	908
f 162 	914 	915
f 908 	2 	382
f 917 	916 	172
f 3 	895 	898
f 917 	172 	918
f 174 	918 	172
f 179 	919 	918
f 174 	179 	918
f 185 	920 	919
f 185 	919 	179
f 911 	920 	130
f 917 	918 	915
f 914 	916 	915
f 917 	915 	916
f 920 	911 	915
f 918 	919 	915
f 919 	920 	915
f 912 	910 	915
f 914 	166 	916
# 1838 faces

 #end of obj_0

